<?xml version="1.0" encoding="UTF-8" standalone="no"?>
<svg
   viewBox="0 0 223.57039 40.429606"
   version="1.1"
   id="svg65"
   sodipodi:docname="Yamada_Holdings_Logo.svg"
   width="59.153mm"
   height="10.697mm"
   inkscape:version="1.1 (c68e22c387, 2021-05-23)"
   xmlns:inkscape="http://www.inkscape.org/namespaces/inkscape"
   xmlns:sodipodi="http://sodipodi.sourceforge.net/DTD/sodipodi-0.dtd"
   xmlns="http://www.w3.org/2000/svg"
   xmlns:svg="http://www.w3.org/2000/svg">
  <sodipodi:namedview
     id="namedview67"
     pagecolor="#ffffff"
     bordercolor="#666666"
     borderopacity="1.0"
     inkscape:pageshadow="2"
     inkscape:pageopacity="0.0"
     inkscape:pagecheckerboard="0"
     showgrid="false"
     inkscape:snap-page="true"
     units="mm"
     width="59.153mm"
     inkscape:zoom="2.117189"
     inkscape:cx="226.71571"
     inkscape:cy="-29.992598"
     inkscape:window-width="1920"
     inkscape:window-height="1017"
     inkscape:window-x="-8"
     inkscape:window-y="-8"
     inkscape:window-maximized="1"
     inkscape:current-layer="svg65"
     inkscape:document-units="mm" />
  <defs
     id="defs41">
    <style
       id="style39">.cls-1{fill:#004ea2;}.cls-2{fill:#e60012;}.cls-3{fill:#231815;}</style>
  </defs>
  <g
     id="g268">
    <path
       class="cls-1"
       d="M 0,40.43 H 37.85 V 0 H 0 Z M 3.07,3.06 h 31.69 v 34.3 H 3.07 Z"
       id="path43" />
    <path
       class="cls-2"
       d="M 17,26.78 C 16.64,26.39 8,17.61 7.35,16.92 a 1.07,1.07 0 0 0 -1.84,0.83 v 15.79 a 1.21,1.21 0 0 0 1.23,1.22 h 9.9 a 1.2,1.2 0 0 0 1.21,-1.22 v -5.25 c 0,-0.59 0,-0.69 -0.85,-1.51 m 15.2,-9 a 1.06,1.06 0 0 0 -1.82,-0.83 c -0.7,0.69 -9.29,9.47 -9.66,9.86 -0.85,0.82 -0.85,0.92 -0.85,1.51 v 5.25 a 1.22,1.22 0 0 0 1.22,1.22 L 31,34.86 a 1.23,1.23 0 0 0 1.22,-1.24 z m -4,-3.31 c 0,0 -5.41,-5.35 -9.07,-9 C 15.6,9 9.74,14.76 8.93,15.59 l 9.07,9.1 a 1.23,1.23 0 0 0 1.71,0 l 8.51,-8.54 a 1.2,1.2 0 0 0 0,-1.71"
       id="path45" />
    <path
       class="cls-1"
       d="M 78.2,9 67.46,40.43 h 6.2 v -0.07 l 8,-23.56 8,23.63 H 96 L 85.27,9 Z m 65.9,0 -10.73,31.43 h 6.19 v -0.07 l 8,-23.56 8,23.63 H 162 L 151.18,9 Z m 68.7,0 h -7.07 L 195,40.43 h 6.2 v -0.07 l 8,-23.56 8,23.63 h 6.37 z M 114.65,32.25 106.92,9 h -7.18 v 31.43 h 5.72 V 22.2 l 6,18.23 h 6.18 l 6.18,-18.12 v 18.12 h 5.61 V 9 h -7.24 z M 184.49,9 h -19 v 31.43 h 17.26 c 1.19,0 12.23,-0.85 12.23,-15.76 C 195,9.61 184.49,9 184.49,9 m -1.57,26 c -0.18,0 -6.74,0 -11.76,0 V 14.32 h 12.32 c 0.58,0 5.4,1.41 5.4,10.35 0,9.25 -5.57,10.24 -6,10.27 M 52.09,0 62.35,17.59 61.3,19.37 50,0 h -8.89 l 13.24,22.76 v 17.67 h 8.86 V 22.82 L 76.64,0 Z"
       id="path47" />
    <polygon
       class="cls-2"
       points="62.34,17.59 72.7,0 52.09,0 "
       id="polygon49" />
  </g>
</svg>
